<svg width="27" height="17" viewBox="0 0 27 17" fill="none" xmlns="http://www.w3.org/2000/svg">
<path fill-rule="evenodd" clip-rule="evenodd" d="M26.2517 8.43868C26.2517 8.19004 26.1529 7.95159 25.9771 7.77577C25.8013 7.59996 25.5628 7.50118 25.3142 7.50118H3.2023L9.10293 1.60243C9.19009 1.51527 9.25923 1.41179 9.30641 1.2979C9.35358 1.18402 9.37786 1.06195 9.37786 0.938684C9.37786 0.815414 9.35358 0.693352 9.30641 0.579465C9.25923 0.465579 9.19009 0.362099 9.10293 0.274934C9.01576 0.187769 8.91228 0.118626 8.7984 0.0714532C8.68451 0.0242799 8.56245 0 8.43918 0C8.31591 0 8.19384 0.0242799 8.07996 0.0714532C7.96607 0.118626 7.86259 0.187769 7.77543 0.274934L0.275426 7.77493C0.18812 7.86202 0.118852 7.96547 0.0715898 8.07937C0.0243277 8.19327 0 8.31537 0 8.43868C0 8.562 0.0243277 8.6841 0.0715898 8.798C0.118852 8.91189 0.18812 9.01535 0.275426 9.10243L7.77543 16.6024C7.86259 16.6896 7.96607 16.7587 8.07996 16.8059C8.19384 16.8531 8.31591 16.8774 8.43918 16.8774C8.56245 16.8774 8.68451 16.8531 8.7984 16.8059C8.91228 16.7587 9.01576 16.6896 9.10293 16.6024C9.19009 16.5153 9.25923 16.4118 9.30641 16.2979C9.35358 16.184 9.37786 16.062 9.37786 15.9387C9.37786 15.8154 9.35358 15.6934 9.30641 15.5795C9.25923 15.4656 9.19009 15.3621 9.10293 15.2749L3.2023 9.37618H25.3142C25.5628 9.37618 25.8013 9.27741 25.9771 9.1016C26.1529 8.92578 26.2517 8.68732 26.2517 8.43868Z" fill="#606470"/>
</svg>
