<svg width="33" height="42" viewBox="0 0 33 42" fill="none" xmlns="http://www.w3.org/2000/svg">
<path fill-rule="evenodd" clip-rule="evenodd" d="M19.9441 32.3772C26.8469 30.7962 32 24.5645 32 17.1178C32 8.47613 25.0604 1.4707 16.5 1.4707C7.93959 1.4707 1 8.47613 1 17.1178C1 24.938 6.6831 31.4183 14.1076 32.5796L17.3158 41.0001L19.9441 32.3772Z" fill="#7550CC"/>
<path d="M19.9441 32.3772L19.8324 31.8898C19.6579 31.9298 19.518 32.0601 19.4658 32.2314L19.9441 32.3772ZM14.1076 32.5796L14.5748 32.4016C14.5109 32.2339 14.3621 32.1133 14.1848 32.0856L14.1076 32.5796ZM17.3158 41.0001L16.8486 41.1781C16.9246 41.3778 17.1192 41.5071 17.3328 41.4998C17.5464 41.4925 17.7318 41.3503 17.7941 41.1459L17.3158 41.0001ZM31.5 17.1178C31.5 24.3293 26.51 30.3604 19.8324 31.8898L20.0557 32.8646C27.1838 31.232 32.5 24.7996 32.5 17.1178H31.5ZM16.5 1.9707C24.7798 1.9707 31.5 8.74781 31.5 17.1178H32.5C32.5 8.20445 25.341 0.970703 16.5 0.970703V1.9707ZM1.5 17.1178C1.5 8.74781 8.22017 1.9707 16.5 1.9707V0.970703C7.659 0.970703 0.5 8.20445 0.5 17.1178H1.5ZM14.1848 32.0856C7.0034 30.9624 1.5 24.6914 1.5 17.1178H0.5C0.5 25.1847 6.36279 31.8743 14.0303 33.0736L14.1848 32.0856ZM13.6403 32.7576L16.8486 41.1781L17.783 40.8221L14.5748 32.4016L13.6403 32.7576ZM17.7941 41.1459L20.4223 32.523L19.4658 32.2314L16.8375 40.8543L17.7941 41.1459Z" fill="white"/>
</svg>
