<svg width="33" height="43" viewBox="0 0 33 43" fill="none" xmlns="http://www.w3.org/2000/svg">
<path fill-rule="evenodd" clip-rule="evenodd" d="M19.9441 33.3772C26.8469 31.7962 32 25.5645 32 18.1178C32 9.47613 25.0604 2.4707 16.5 2.4707C7.93959 2.4707 1 9.47613 1 18.1178C1 25.938 6.6831 32.4183 14.1076 33.5796L17.3158 42.0001L19.9441 33.3772Z" fill="#7550CC"/>
<path d="M19.9441 33.3772L19.8324 32.8898C19.6579 32.9298 19.518 33.0601 19.4658 33.2314L19.9441 33.3772ZM14.1076 33.5796L14.5748 33.4016C14.5109 33.2339 14.3621 33.1133 14.1848 33.0856L14.1076 33.5796ZM17.3158 42.0001L16.8486 42.1781C16.9246 42.3778 17.1192 42.5071 17.3328 42.4998C17.5464 42.4925 17.7318 42.3503 17.7941 42.1459L17.3158 42.0001ZM31.5 18.1178C31.5 25.3293 26.51 31.3604 19.8324 32.8898L20.0557 33.8646C27.1838 32.232 32.5 25.7996 32.5 18.1178H31.5ZM16.5 2.9707C24.7798 2.9707 31.5 9.74781 31.5 18.1178H32.5C32.5 9.20445 25.341 1.9707 16.5 1.9707V2.9707ZM1.5 18.1178C1.5 9.74781 8.22017 2.9707 16.5 2.9707V1.9707C7.659 1.9707 0.5 9.20445 0.5 18.1178H1.5ZM14.1848 33.0856C7.0034 31.9624 1.5 25.6914 1.5 18.1178H0.5C0.5 26.1847 6.36279 32.8743 14.0303 34.0736L14.1848 33.0856ZM13.6403 33.7576L16.8486 42.1781L17.783 41.8221L14.5748 33.4016L13.6403 33.7576ZM17.7941 42.1459L20.4223 33.523L19.4658 33.2314L16.8375 41.8543L17.7941 42.1459Z" fill="white"/>
<path d="M21.236 15.9486H17.188V20.8606C17.188 22.7006 17.7 23.2126 19.476 23.2126H21.748C23.3 23.2126 23.764 22.5406 23.972 20.1566C23.492 20.0446 22.708 19.7406 22.308 19.4366C22.244 21.2286 22.148 21.5166 21.588 21.5166H19.732C19.108 21.5166 18.996 21.4366 18.996 20.8606V17.5806H21.236V17.9966H23.076V11.8206H17.044V13.4846H21.236V15.9486ZM14.164 20.9726H16.436V19.3246H14.164V17.5966H16.58V15.9486H13.812V14.4446H16.18V12.8126H13.812V11.2446H12.036V12.8126H9.65204V14.4446H12.036V15.9486H9.22004V17.5966H12.42V22.5726C12.004 22.1086 11.684 21.5166 11.428 20.7326C11.46 20.0606 11.492 19.3726 11.508 18.6686L9.76404 18.5406C9.73204 21.2766 9.57204 23.9326 8.78804 25.5486C9.20404 25.7246 10.036 26.1406 10.372 26.3646C10.724 25.5806 10.964 24.6366 11.124 23.5646C12.372 25.3566 14.276 25.7406 17.252 25.7406H23.428C23.54 25.1806 23.86 24.3006 24.148 23.8686C22.708 23.9326 18.468 23.9326 17.252 23.9166C16.02 23.9166 15.012 23.8526 14.164 23.6126V20.9726Z" fill="white"/>
</svg>
