<svg width="33" height="43" viewBox="0 0 33 43" fill="none" xmlns="http://www.w3.org/2000/svg">
<path fill-rule="evenodd" clip-rule="evenodd" d="M19.9441 33.3772C26.8469 31.7962 32 25.5645 32 18.1178C32 9.47613 25.0604 2.4707 16.5 2.4707C7.93959 2.4707 1 9.47613 1 18.1178C1 25.938 6.6831 32.4183 14.1076 33.5796L17.3158 42.0001L19.9441 33.3772Z" fill="#7550CC"/>
<path d="M19.9441 33.3772L19.8324 32.8898C19.6579 32.9298 19.518 33.0601 19.4658 33.2314L19.9441 33.3772ZM14.1076 33.5796L14.5748 33.4016C14.5109 33.2339 14.3621 33.1133 14.1848 33.0856L14.1076 33.5796ZM17.3158 42.0001L16.8486 42.1781C16.9246 42.3778 17.1192 42.5071 17.3328 42.4998C17.5464 42.4925 17.7318 42.3503 17.7941 42.1459L17.3158 42.0001ZM31.5 18.1178C31.5 25.3293 26.51 31.3604 19.8324 32.8898L20.0557 33.8646C27.1838 32.232 32.5 25.7996 32.5 18.1178H31.5ZM16.5 2.9707C24.7798 2.9707 31.5 9.74781 31.5 18.1178H32.5C32.5 9.20445 25.341 1.9707 16.5 1.9707V2.9707ZM1.5 18.1178C1.5 9.74781 8.22017 2.9707 16.5 2.9707V1.9707C7.659 1.9707 0.5 9.20445 0.5 18.1178H1.5ZM14.1848 33.0856C7.0034 31.9624 1.5 25.6914 1.5 18.1178H0.5C0.5 26.1847 6.36279 32.8743 14.0303 34.0736L14.1848 33.0856ZM13.6403 33.7576L16.8486 42.1781L17.783 41.8221L14.5748 33.4016L13.6403 33.7576ZM17.7941 42.1459L20.4223 33.523L19.4658 33.2314L16.8375 41.8543L17.7941 42.1459Z" fill="white"/>
<path d="M14.964 11.7086H9.89204V13.1486H14.964V11.7086ZM15.524 13.8526H9.02804V15.3566H15.524V13.8526ZM13.22 21.9806V23.8206H11.396V21.9806H13.22ZM14.884 20.4766H9.74804V25.9326H11.396V25.3086H14.884V20.4766ZM9.79604 19.6926H14.932V18.2686H9.79604V19.6926ZM18.9 24.1246C18.34 24.1246 18.004 23.9966 18.004 23.6446C18.004 23.1006 18.34 22.3326 22.98 17.8526C23.076 17.7406 23.156 17.5806 23.204 17.4846L21.94 16.9086L21.508 16.9406H16.788C17.156 16.4766 17.508 15.9326 17.828 15.3406H23.796V13.5326H18.692C18.948 12.9246 19.172 12.2846 19.348 11.6446L17.46 11.2286C16.98 13.0686 16.052 14.9406 14.932 16.0926V16.0766H9.79604V17.5326H14.932V16.1886C15.396 16.4766 16.132 17.0206 16.468 17.3406C16.58 17.2126 16.676 17.0846 16.788 16.9406V18.6686H19.54C16.212 22.2046 16.036 23.0846 16.036 23.9326C16.036 25.1806 16.948 25.9806 18.9 25.9806H21.636C23.268 25.9806 23.924 25.4366 24.132 22.7006C23.604 22.6046 22.98 22.3806 22.484 22.1086C22.42 23.9006 22.228 24.1246 21.716 24.1246H18.9Z" fill="white"/>
</svg>
