<svg width="43" height="50" viewBox="0 0 43 50" fill="none" xmlns="http://www.w3.org/2000/svg">
<mask id="path-1-inside-1_752_55226" fill="white">
<path fill-rule="evenodd" clip-rule="evenodd" d="M11.9525 2.13214C7.79912 3.9781 4.4781 7.29912 2.63214 11.4525C1.88165 13.1411 1.3814 14.9323 1.22369 16.7735C1.10805 18.1235 1 19.7258 1 21C1 22.2741 1.10805 23.8764 1.22369 25.2264C1.3814 27.0676 1.88165 28.8588 2.63214 30.5474C4.4781 34.7008 7.79922 38.0218 11.9526 39.8678C13.6411 40.6183 15.4323 41.1185 17.2733 41.2762C17.3424 41.2822 17.4121 41.2881 17.4825 41.2939L20.5695 49.1362C20.9022 49.9812 22.0979 49.9812 22.4305 49.1362L25.5177 41.2939C25.5879 41.2881 25.6576 41.2822 25.7266 41.2762C27.5676 41.1185 29.3587 40.6183 31.0472 39.8678C35.2007 38.0218 38.5218 34.7007 40.3678 30.5472C41.1183 28.8587 41.6185 27.0676 41.7762 25.2266C41.8919 23.8765 42 22.2741 42 21C42 19.7258 41.8919 18.1234 41.7762 16.7733C41.6185 14.9323 41.1183 13.1411 40.3678 11.4526C38.5219 7.29922 35.2008 3.9781 31.0474 2.13214C29.3588 1.38165 27.5676 0.8814 25.7264 0.723694C24.3764 0.608054 22.7741 0.5 21.5 0.5C20.2258 0.5 18.6235 0.608054 17.2735 0.723694C15.4323 0.8814 13.6411 1.38165 11.9525 2.13214Z"/>
</mask>
<path fill-rule="evenodd" clip-rule="evenodd" d="M11.9525 2.13214C7.79912 3.9781 4.4781 7.29912 2.63214 11.4525C1.88165 13.1411 1.3814 14.9323 1.22369 16.7735C1.10805 18.1235 1 19.7258 1 21C1 22.2741 1.10805 23.8764 1.22369 25.2264C1.3814 27.0676 1.88165 28.8588 2.63214 30.5474C4.4781 34.7008 7.79922 38.0218 11.9526 39.8678C13.6411 40.6183 15.4323 41.1185 17.2733 41.2762C17.3424 41.2822 17.4121 41.2881 17.4825 41.2939L20.5695 49.1362C20.9022 49.9812 22.0979 49.9812 22.4305 49.1362L25.5177 41.2939C25.5879 41.2881 25.6576 41.2822 25.7266 41.2762C27.5676 41.1185 29.3587 40.6183 31.0472 39.8678C35.2007 38.0218 38.5218 34.7007 40.3678 30.5472C41.1183 28.8587 41.6185 27.0676 41.7762 25.2266C41.8919 23.8765 42 22.2741 42 21C42 19.7258 41.8919 18.1234 41.7762 16.7733C41.6185 14.9323 41.1183 13.1411 40.3678 11.4526C38.5219 7.29922 35.2008 3.9781 31.0474 2.13214C29.3588 1.38165 27.5676 0.8814 25.7264 0.723694C24.3764 0.608054 22.7741 0.5 21.5 0.5C20.2258 0.5 18.6235 0.608054 17.2735 0.723694C15.4323 0.8814 13.6411 1.38165 11.9525 2.13214Z" fill="url(#paint0_linear_752_55226)"/>
<path d="M2.63214 11.4525L1.71832 11.0464L2.63214 11.4525ZM11.9525 2.13214L12.3587 3.04595L11.9525 2.13214ZM1.22369 16.7735L2.22005 16.8588L1.22369 16.7735ZM1.22369 25.2264L0.227342 25.3118L1.22369 25.2264ZM2.63214 30.5474L1.71832 30.9535L2.63214 30.5474ZM11.9526 39.8678L11.5465 40.7816H11.5465L11.9526 39.8678ZM17.2733 41.2762L17.3587 40.2799H17.3587L17.2733 41.2762ZM17.4825 41.2939L18.413 40.9276L18.1852 40.3491L17.5656 40.2974L17.4825 41.2939ZM20.5695 49.1362L21.5001 48.7699L21.5 48.7699L20.5695 49.1362ZM22.4305 49.1362L21.5 48.7699L21.5 48.7699L22.4305 49.1362ZM25.5177 41.2939L25.4345 40.2974L24.8149 40.3491L24.5872 40.9276L25.5177 41.2939ZM25.7266 41.2762L25.6412 40.2799L25.7266 41.2762ZM31.0472 39.8678L31.4534 40.7816L31.0472 39.8678ZM40.3678 30.5472L39.454 30.1411L40.3678 30.5472ZM41.7762 25.2266L40.7799 25.1412V25.1412L41.7762 25.2266ZM41.7762 16.7733L40.7799 16.8587V16.8587L41.7762 16.7733ZM40.3678 11.4526L41.2816 11.0465L40.3678 11.4526ZM31.0474 2.13214L30.6412 3.04595L30.6412 3.04595L31.0474 2.13214ZM25.7264 0.723694L25.6411 1.72005L25.7264 0.723694ZM17.2735 0.723694L17.3588 1.72005L17.2735 0.723694ZM3.54595 11.8587C5.29136 7.93149 8.43149 4.79136 12.3587 3.04595L11.5464 1.21832C7.16675 3.16483 3.66483 6.66675 1.71832 11.0464L3.54595 11.8587ZM2.22005 16.8588C2.3671 15.142 2.83475 13.4589 3.54595 11.8587L1.71832 11.0464C0.928542 12.8234 0.395695 14.7227 0.227342 16.6881L2.22005 16.8588ZM2 21C2 19.7701 2.10496 18.2023 2.22005 16.8588L0.227342 16.6881C0.111146 18.0446 0 19.6816 0 21H2ZM2.22005 25.1411C2.10496 23.7976 2 22.2298 2 21H0C0 22.3183 0.111146 23.9553 0.227342 25.3118L2.22005 25.1411ZM3.54595 30.1412C2.83475 28.541 2.3671 26.8579 2.22005 25.1411L0.227342 25.3118C0.395695 27.2772 0.928542 29.1765 1.71832 30.9535L3.54595 30.1412ZM12.3588 38.954C8.43159 37.2086 5.29136 34.0684 3.54595 30.1412L1.71832 30.9535C3.66484 35.3332 7.16686 38.8351 11.5465 40.7816L12.3588 38.954ZM17.3587 40.2799C15.6419 40.1328 13.9589 39.6652 12.3588 38.954L11.5465 40.7816C13.3234 41.5714 15.2226 42.1042 17.1879 42.2726L17.3587 40.2799ZM17.5656 40.2974C17.496 40.2916 17.427 40.2858 17.3587 40.2799L17.1879 42.2726C17.2578 42.2786 17.3283 42.2845 17.3993 42.2905L17.5656 40.2974ZM16.552 41.6602L19.639 49.5025L21.5 48.7699L18.413 40.9276L16.552 41.6602ZM19.639 49.5025C20.3043 51.1924 22.6958 51.1924 23.3611 49.5025L21.5 48.7699H21.5001L19.639 49.5025ZM23.361 49.5025L26.4482 41.6602L24.5872 40.9276L21.5 48.7699L23.361 49.5025ZM25.6412 40.2799C25.5729 40.2858 25.504 40.2916 25.4345 40.2974L25.6008 42.2905C25.6718 42.2845 25.7422 42.2786 25.812 42.2726L25.6412 40.2799ZM30.6411 38.954C29.041 39.6652 27.358 40.1328 25.6412 40.2799L25.812 42.2726C27.7773 42.1042 29.6765 41.5714 31.4534 40.7816L30.6411 38.954ZM39.454 30.1411C37.7086 34.0684 34.5684 37.2086 30.6411 38.954L31.4534 40.7816C35.8331 38.8351 39.3351 35.3331 41.2816 30.9534L39.454 30.1411ZM40.7799 25.1412C40.6328 26.858 40.1652 28.541 39.454 30.1411L41.2816 30.9534C42.0714 29.1765 42.6042 27.2773 42.7726 25.312L40.7799 25.1412ZM41 21C41 22.2299 40.895 23.7977 40.7799 25.1412L42.7726 25.312C42.8888 23.9554 43 22.3183 43 21H41ZM40.7799 16.8587C40.895 18.2022 41 19.77 41 21H43C43 19.6816 42.8888 18.0445 42.7726 16.6879L40.7799 16.8587ZM39.454 11.8588C40.1652 13.4589 40.6328 15.1419 40.7799 16.8587L42.7726 16.6879C42.6042 14.7226 42.0714 12.8234 41.2816 11.0465L39.454 11.8588ZM30.6412 3.04595C34.5684 4.79136 37.7086 7.93159 39.454 11.8588L41.2816 11.0465C39.3351 6.66686 35.8332 3.16484 31.4535 1.21832L30.6412 3.04595ZM25.6411 1.72005C27.3579 1.8671 29.041 2.33475 30.6412 3.04595L31.4535 1.21832C29.6765 0.428542 27.7772 -0.104305 25.8118 -0.272658L25.6411 1.72005ZM21.5 1.5C22.7298 1.5 24.2976 1.60496 25.6411 1.72005L25.8118 -0.272658C24.4553 -0.388854 22.8183 -0.5 21.5 -0.5V1.5ZM17.3588 1.72005C18.7023 1.60496 20.2701 1.5 21.5 1.5V-0.5C20.1816 -0.5 18.5446 -0.388854 17.1881 -0.272658L17.3588 1.72005ZM12.3587 3.04595C13.9589 2.33475 15.642 1.8671 17.3588 1.72005L17.1881 -0.272658C15.2227 -0.104305 13.3234 0.428543 11.5464 1.21832L12.3587 3.04595Z" fill="white" mask="url(#path-1-inside-1_752_55226)"/>
<path d="M31.5286 15.5H30.5714V12.75C30.5714 12.0207 30.2704 11.3212 29.7346 10.8055C29.1988 10.2897 28.472 10 27.7143 10H16.2857C15.528 10 14.8012 10.2897 14.2654 10.8055C13.7296 11.3212 13.4286 12.0207 13.4286 12.75V15.5H12.4571C12.3359 15.5 12.2196 15.5464 12.1339 15.6289C12.0482 15.7114 12 15.8233 12 15.94V19.185C12 19.4284 12.2043 19.625 12.4571 19.625H13.4286V27.875C13.4286 28.6313 13.4286 29.25 14.8571 29.25V31.3125C14.8571 31.4948 14.9324 31.6697 15.0664 31.7986C15.2003 31.9276 15.382 32 15.5714 32H18.4286C18.618 32 18.7997 31.9276 18.9336 31.7986C19.0676 31.6697 19.1429 31.4948 19.1429 31.3125V29.25H24.8571V31.3125C24.8571 31.4948 24.9324 31.6697 25.0664 31.7986C25.2003 31.9276 25.382 32 25.5714 32H28.4286C28.618 32 28.7997 31.9276 28.9336 31.7986C29.0676 31.6697 29.1429 31.4948 29.1429 31.3125V29.25C30.5714 29.25 30.5714 28.6313 30.5714 27.875V19.625H31.5286C31.6536 19.625 31.7735 19.5772 31.8619 19.4921C31.9503 19.407 32 19.2916 32 19.1713C32 19.0509 31.9503 18.9355 31.8619 18.8504C31.7735 18.7653 31.6536 18.7175 31.5286 18.7175C31.4035 18.7175 31.2836 18.7653 31.1952 18.8504C31.1068 18.9355 31.0571 19.0509 31.0571 19.1713C31.0571 19.2916 31.1068 19.407 31.1952 19.4921C31.2836 19.5772 31.4035 19.625 31.5286 19.625C31.6536 19.625 31.7735 19.5772 31.8619 19.4921C31.9503 19.407 32 19.2916 32 19.1713V15.9537C32 15.8334 31.9503 15.718 31.8619 15.6329C31.7735 15.5478 31.6536 15.5 31.5286 15.5ZM19.1429 11.375H24.8571V12.75H19.1429V11.375ZM16.2857 26.5C15.9068 26.5 15.5435 26.3551 15.2756 26.0973C15.0077 25.8394 14.8571 25.4897 14.8571 25.125C14.8571 24.7603 15.0077 24.4106 15.2756 24.1527C15.5435 23.8949 15.9068 23.75 16.2857 23.75C16.6646 23.75 17.028 23.8949 17.2959 24.1527C17.5638 24.4106 17.7143 24.7603 17.7143 25.125C17.7143 25.4897 17.5638 25.8394 17.2959 26.0973C17.028 26.3551 16.6646 26.5 16.2857 26.5ZM14.8571 21V14.125H29.1429V21H14.8571ZM27.7143 26.5C27.3354 26.5 26.972 26.3551 26.7041 26.0973C26.4362 25.8394 26.2857 25.4897 26.2857 25.125C26.2857 24.7603 26.4362 24.4106 26.7041 24.1527C26.972 23.8949 27.3354 23.75 27.7143 23.75C28.0932 23.75 28.4565 23.8949 28.7244 24.1527C28.9923 24.4106 29.1429 24.7603 29.1429 25.125C29.1429 25.4897 28.9923 25.8394 28.7244 26.0973C28.4565 26.3551 28.0932 26.5 27.7143 26.5Z" fill="white"/>
<defs>
<linearGradient id="paint0_linear_752_55226" x1="2.62699" y1="49.77" x2="53.833" y2="26.1139" gradientUnits="userSpaceOnUse">
<stop stop-color="#493289"/>
<stop offset="1" stop-color="#6A45C5"/>
</linearGradient>
</defs>
</svg>
