<svg width="41" height="50" viewBox="0 0 41 50" fill="none" xmlns="http://www.w3.org/2000/svg">
<mask id="path-1-inside-1_5133_42373" fill="white">
<path fill-rule="evenodd" clip-rule="evenodd" d="M10.9525 2.13214C6.79912 3.9781 3.4781 7.29912 1.63214 11.4525C0.881647 13.1411 0.3814 14.9323 0.223694 16.7735C0.108054 18.1235 0 19.7258 0 21C0 22.2741 0.108054 23.8764 0.223694 25.2264C0.3814 27.0676 0.881647 28.8588 1.63214 30.5474C3.4781 34.7008 6.79922 38.0218 10.9526 39.8678C12.6411 40.6183 14.4323 41.1185 16.2733 41.2762C16.3424 41.2822 16.4121 41.2881 16.4825 41.2939L19.5695 49.1362C19.9022 49.9812 21.0979 49.9812 21.4305 49.1362L24.5177 41.2939C24.5879 41.2881 24.6576 41.2822 24.7266 41.2762C26.5676 41.1185 28.3587 40.6183 30.0472 39.8678C34.2007 38.0218 37.5218 34.7007 39.3678 30.5472C40.1183 28.8587 40.6185 27.0676 40.7762 25.2266C40.8919 23.8765 41 22.2741 41 21C41 19.7258 40.8919 18.1234 40.7762 16.7733C40.6185 14.9323 40.1183 13.1411 39.3678 11.4526C37.5219 7.29922 34.2008 3.9781 30.0474 2.13214C28.3588 1.38165 26.5676 0.8814 24.7264 0.723694C23.3764 0.608054 21.7741 0.5 20.5 0.5C19.2258 0.5 17.6235 0.608054 16.2735 0.723694C14.4323 0.8814 12.6411 1.38165 10.9525 2.13214Z"/>
</mask>
<path fill-rule="evenodd" clip-rule="evenodd" d="M10.9525 2.13214C6.79912 3.9781 3.4781 7.29912 1.63214 11.4525C0.881647 13.1411 0.3814 14.9323 0.223694 16.7735C0.108054 18.1235 0 19.7258 0 21C0 22.2741 0.108054 23.8764 0.223694 25.2264C0.3814 27.0676 0.881647 28.8588 1.63214 30.5474C3.4781 34.7008 6.79922 38.0218 10.9526 39.8678C12.6411 40.6183 14.4323 41.1185 16.2733 41.2762C16.3424 41.2822 16.4121 41.2881 16.4825 41.2939L19.5695 49.1362C19.9022 49.9812 21.0979 49.9812 21.4305 49.1362L24.5177 41.2939C24.5879 41.2881 24.6576 41.2822 24.7266 41.2762C26.5676 41.1185 28.3587 40.6183 30.0472 39.8678C34.2007 38.0218 37.5218 34.7007 39.3678 30.5472C40.1183 28.8587 40.6185 27.0676 40.7762 25.2266C40.8919 23.8765 41 22.2741 41 21C41 19.7258 40.8919 18.1234 40.7762 16.7733C40.6185 14.9323 40.1183 13.1411 39.3678 11.4526C37.5219 7.29922 34.2008 3.9781 30.0474 2.13214C28.3588 1.38165 26.5676 0.8814 24.7264 0.723694C23.3764 0.608054 21.7741 0.5 20.5 0.5C19.2258 0.5 17.6235 0.608054 16.2735 0.723694C14.4323 0.8814 12.6411 1.38165 10.9525 2.13214Z" fill="white"/>
<path d="M1.63214 11.4525L0.718324 11.0464L1.63214 11.4525ZM10.9525 2.13214L11.3587 3.04595L10.9525 2.13214ZM0.223694 16.7735L1.22005 16.8588L0.223694 16.7735ZM0.223694 25.2264L-0.772658 25.3118L0.223694 25.2264ZM1.63214 30.5474L0.718324 30.9535L1.63214 30.5474ZM10.9526 39.8678L10.5465 40.7816H10.5465L10.9526 39.8678ZM16.2733 41.2762L16.3587 40.2799H16.3587L16.2733 41.2762ZM16.4825 41.2939L17.413 40.9276L17.1852 40.3491L16.5656 40.2974L16.4825 41.2939ZM19.5695 49.1362L20.5001 48.7699L20.5 48.7699L19.5695 49.1362ZM21.4305 49.1362L20.5 48.7699L20.5 48.7699L21.4305 49.1362ZM24.5177 41.2939L24.4345 40.2974L23.8149 40.3491L23.5872 40.9276L24.5177 41.2939ZM24.7266 41.2762L24.6412 40.2799L24.7266 41.2762ZM30.0472 39.8678L30.4534 40.7816L30.0472 39.8678ZM39.3678 30.5472L38.454 30.1411L39.3678 30.5472ZM40.7762 25.2266L39.7799 25.1412V25.1412L40.7762 25.2266ZM40.7762 16.7733L39.7799 16.8587V16.8587L40.7762 16.7733ZM39.3678 11.4526L40.2816 11.0465L39.3678 11.4526ZM30.0474 2.13214L29.6412 3.04595L29.6412 3.04595L30.0474 2.13214ZM24.7264 0.723694L24.6411 1.72005L24.7264 0.723694ZM16.2735 0.723694L16.3588 1.72005L16.2735 0.723694ZM2.54595 11.8587C4.29136 7.93149 7.43149 4.79136 11.3587 3.04595L10.5464 1.21832C6.16675 3.16483 2.66483 6.66675 0.718324 11.0464L2.54595 11.8587ZM1.22005 16.8588C1.3671 15.142 1.83475 13.4589 2.54595 11.8587L0.718324 11.0464C-0.0714583 12.8234 -0.604305 14.7227 -0.772658 16.6881L1.22005 16.8588ZM1 21C1 19.7701 1.10496 18.2023 1.22005 16.8588L-0.772658 16.6881C-0.888854 18.0446 -1 19.6816 -1 21H1ZM1.22005 25.1411C1.10496 23.7976 1 22.2298 1 21H-1C-1 22.3183 -0.888854 23.9553 -0.772658 25.3118L1.22005 25.1411ZM2.54595 30.1412C1.83475 28.541 1.3671 26.8579 1.22005 25.1411L-0.772658 25.3118C-0.604305 27.2772 -0.071458 29.1765 0.718324 30.9535L2.54595 30.1412ZM11.3588 38.954C7.43159 37.2086 4.29136 34.0684 2.54595 30.1412L0.718324 30.9535C2.66484 35.3332 6.16686 38.8351 10.5465 40.7816L11.3588 38.954ZM16.3587 40.2799C14.6419 40.1328 12.9589 39.6652 11.3588 38.954L10.5465 40.7816C12.3234 41.5714 14.2226 42.1042 16.1879 42.2726L16.3587 40.2799ZM16.5656 40.2974C16.496 40.2916 16.427 40.2858 16.3587 40.2799L16.1879 42.2726C16.2578 42.2786 16.3283 42.2845 16.3993 42.2905L16.5656 40.2974ZM15.552 41.6602L18.639 49.5025L20.5 48.7699L17.413 40.9276L15.552 41.6602ZM18.639 49.5025C19.3043 51.1924 21.6958 51.1924 22.3611 49.5025L20.5 48.7699H20.5001L18.639 49.5025ZM22.361 49.5025L25.4482 41.6602L23.5872 40.9276L20.5 48.7699L22.361 49.5025ZM24.6412 40.2799C24.5729 40.2858 24.504 40.2916 24.4345 40.2974L24.6008 42.2905C24.6718 42.2845 24.7422 42.2786 24.812 42.2726L24.6412 40.2799ZM29.6411 38.954C28.041 39.6652 26.358 40.1328 24.6412 40.2799L24.812 42.2726C26.7773 42.1042 28.6765 41.5714 30.4534 40.7816L29.6411 38.954ZM38.454 30.1411C36.7086 34.0684 33.5684 37.2086 29.6411 38.954L30.4534 40.7816C34.8331 38.8351 38.3351 35.3331 40.2816 30.9534L38.454 30.1411ZM39.7799 25.1412C39.6328 26.858 39.1652 28.541 38.454 30.1411L40.2816 30.9534C41.0714 29.1765 41.6042 27.2773 41.7726 25.312L39.7799 25.1412ZM40 21C40 22.2299 39.895 23.7977 39.7799 25.1412L41.7726 25.312C41.8888 23.9554 42 22.3183 42 21H40ZM39.7799 16.8587C39.895 18.2022 40 19.77 40 21H42C42 19.6816 41.8888 18.0445 41.7726 16.6879L39.7799 16.8587ZM38.454 11.8588C39.1652 13.4589 39.6328 15.1419 39.7799 16.8587L41.7726 16.6879C41.6042 14.7226 41.0714 12.8234 40.2816 11.0465L38.454 11.8588ZM29.6412 3.04595C33.5684 4.79136 36.7086 7.93159 38.454 11.8588L40.2816 11.0465C38.3351 6.66686 34.8332 3.16484 30.4535 1.21832L29.6412 3.04595ZM24.6411 1.72005C26.3579 1.8671 28.041 2.33475 29.6412 3.04595L30.4535 1.21832C28.6765 0.428542 26.7772 -0.104305 24.8118 -0.272658L24.6411 1.72005ZM20.5 1.5C21.7298 1.5 23.2976 1.60496 24.6411 1.72005L24.8118 -0.272658C23.4553 -0.388854 21.8183 -0.5 20.5 -0.5V1.5ZM16.3588 1.72005C17.7023 1.60496 19.2701 1.5 20.5 1.5V-0.5C19.1816 -0.5 17.5446 -0.388854 16.1881 -0.272658L16.3588 1.72005ZM11.3587 3.04595C12.9589 2.33475 14.642 1.8671 16.3588 1.72005L16.1881 -0.272658C14.2227 -0.104305 12.3234 0.428543 10.5464 1.21832L11.3587 3.04595Z" fill="url(#paint0_linear_5133_42373)" mask="url(#path-1-inside-1_5133_42373)"/>
<defs>
<linearGradient id="paint0_linear_5133_42373" x1="1.62699" y1="49.77" x2="52.833" y2="26.1139" gradientUnits="userSpaceOnUse">
<stop stop-color="#493289"/>
<stop offset="1" stop-color="#6A45C5"/>
</linearGradient>
</defs>
</svg>
