<svg width="24" height="24" viewBox="0 0 24 24" fill="none" xmlns="http://www.w3.org/2000/svg">
<g id="Icon/24px/close-style2">
<circle id="Ellipse 33" cx="12" cy="12" r="8" fill="#7550CC"/>
<path id="Union" fill-rule="evenodd" clip-rule="evenodd" d="M8.22516 14.6975C7.9272 14.9955 7.9272 15.4786 8.22516 15.7765C8.52312 16.0745 9.00621 16.0745 9.30417 15.7765L12.0008 13.0799L14.6975 15.7766C14.9955 16.0746 15.4785 16.0746 15.7765 15.7766C16.0745 15.4787 16.0745 14.9956 15.7765 14.6976L13.0798 12.0009L15.7782 9.3025C16.0762 9.00454 16.0762 8.52146 15.7782 8.2235C15.4802 7.92554 14.9971 7.92554 14.6992 8.2235L12.0008 10.9219L9.30247 8.2236C9.00451 7.92564 8.52143 7.92564 8.22347 8.2236C7.92551 8.52156 7.92551 9.00464 8.22347 9.3026L10.9218 12.0009L8.22516 14.6975Z" fill="white"/>
</g>
</svg>
