<svg width="29" height="29" viewBox="0 0 29 29" fill="none" xmlns="http://www.w3.org/2000/svg">
<g id="Frame 4">
<g clip-path="url(#clip0_4440_9690)">
<rect id="Rectangle 20" x="29" y="4" width="43" height="4" transform="rotate(-180 29 4)" fill="#7550CC"/>
<rect id="Rectangle 21" x="29" y="9" width="43" height="4" transform="rotate(-180 29 9)" fill="#7550CC"/>
<rect id="Rectangle 22" x="29" y="14" width="43" height="4" transform="rotate(-180 29 14)" fill="#7550CC"/>
<rect id="Rectangle 23" x="29" y="19" width="43" height="4" transform="rotate(-180 29 19)" fill="#7550CC"/>
<rect id="Rectangle 24" x="29" y="24" width="43" height="4" transform="rotate(-180 29 24)" fill="#7550CC"/>
<rect id="Rectangle 25" x="29" y="29" width="43" height="4" transform="rotate(-180 29 29)" fill="#7550CC"/>
</g>
</g>
<defs>
<clipPath id="clip0_4440_9690">
<path d="M29 1.90735e-06C29 16.0163 16.0163 29 -1.90735e-06 29L6.27912e-07 -6.27912e-07L29 1.90735e-06Z" fill="white"/>
</clipPath>
</defs>
</svg>
