<svg width="86" height="86" viewBox="0 0 86 86" fill="none" xmlns="http://www.w3.org/2000/svg">
<path d="M43 86C66.7482 86 86 66.7483 86 43L0 43C-4.15227e-06 66.7482 19.2517 86 43 86Z" fill="#FFF0B7"/>
<path d="M43 -3.75918e-06C19.2518 -5.83532e-06 2.07614e-06 19.2517 0 43L86 43C86 19.2518 66.7482 -1.68304e-06 43 -3.75918e-06Z" fill="#FFCCAC"/>
<g clip-path="url(#clip0_752_55562)">
<rect x="86" y="46" width="43" height="4" transform="rotate(-180 86 46)" fill="#7550CC"/>
<rect x="86" y="51" width="43" height="4" transform="rotate(-180 86 51)" fill="#7550CC"/>
<rect x="86" y="56" width="43" height="4" transform="rotate(-180 86 56)" fill="#7550CC"/>
<rect x="86" y="61" width="43" height="4" transform="rotate(-180 86 61)" fill="#7550CC"/>
<rect x="86" y="66" width="43" height="4" transform="rotate(-180 86 66)" fill="#7550CC"/>
<rect x="86" y="71" width="43" height="4" transform="rotate(-180 86 71)" fill="#7550CC"/>
<rect x="86" y="76" width="43" height="4" transform="rotate(-180 86 76)" fill="#7550CC"/>
<rect x="86" y="81" width="43" height="4" transform="rotate(-180 86 81)" fill="#7550CC"/>
<rect x="86" y="86" width="43" height="4" transform="rotate(-180 86 86)" fill="#7550CC"/>
</g>
<g clip-path="url(#clip1_752_55562)">
<path d="M12 14L51 16.5L67 54L42 74C42 74 37.3052 73.9285 34.5 73C31.511 72.0107 30.1629 70.6798 27.5 69C24.8888 67.3528 23.215 66.6508 21 64.5C18.8987 62.4596 18.1597 60.9133 16.5 58.5C15.0574 56.4023 13.9042 55.3799 13 53C12.0193 50.4186 12 46 12 46V14Z" fill="url(#paint0_linear_752_55562)"/>
<path d="M14.3885 30.0281C17.0899 23.9499 21.9499 19.0899 28.0281 16.3885C30.4992 15.2902 33.1205 14.5581 35.8148 14.3274C37.7905 14.1581 40.1354 14 41.9999 14C43.8645 14 46.2094 14.1581 48.185 14.3274C50.8794 14.5581 53.5006 15.2902 55.9718 16.3885C62.0499 19.0899 66.91 23.9501 69.6114 30.0283C70.7096 32.4992 71.4417 35.1204 71.6726 37.8146C71.8418 39.7903 72 42.1353 72 43.9999C72 45.8646 71.8418 48.2096 71.6726 50.1853C71.4417 52.8794 70.7097 55.5006 69.6115 57.9715C66.91 64.0499 62.0499 68.91 55.9715 71.6115C53.5006 72.7097 50.8794 73.4417 48.1853 73.6726C46.2096 73.8418 43.8646 74 41.9999 74C40.1353 74 37.7903 73.8418 35.8146 73.6726C33.1204 73.4417 30.4992 72.7096 28.0283 71.6114C21.9501 68.91 17.0899 64.0499 14.3885 57.9718C13.2902 55.5006 12.5581 52.8794 12.3274 50.185C12.1581 48.2094 12 45.8645 12 43.9999C12 42.1354 12.1581 39.7905 12.3274 37.8148C12.5581 35.1205 13.2902 32.4992 14.3885 30.0281Z" fill="url(#paint1_linear_752_55562)"/>
<g clip-path="url(#clip2_752_55562)">
<rect x="41" y="18" width="43" height="4" transform="rotate(-180 41 18)" fill="#7550CC"/>
<rect x="41" y="23" width="43" height="4" transform="rotate(-180 41 23)" fill="#7550CC"/>
<rect x="41" y="28" width="43" height="4" transform="rotate(-180 41 28)" fill="#7550CC"/>
<rect x="41" y="33" width="43" height="4" transform="rotate(-180 41 33)" fill="#7550CC"/>
<rect x="41" y="38" width="43" height="4" transform="rotate(-180 41 38)" fill="#7550CC"/>
<rect x="41" y="43" width="43" height="4" transform="rotate(-180 41 43)" fill="#7550CC"/>
</g>
</g>
<mask id="mask0_752_55562" style="mask-type:alpha" maskUnits="userSpaceOnUse" x="27" y="23" width="33" height="39">
<path d="M49 38C43.4 33.2 44.3333 26 45.5 23H27V62H60L58 46C56.6667 45.3333 54.6 42.8 49 38Z" fill="#C4C4C4"/>
</mask>
<g mask="url(#mask0_752_55562)">
<path d="M51.5556 57.1053H35.4444V59.0526C35.4444 59.5691 35.2747 60.0644 34.9726 60.4296C34.6704 60.7948 34.2606 61 33.8333 61H30.6111C30.1838 61 29.774 60.7948 29.4719 60.4296C29.1697 60.0644 29 59.5691 29 59.0526V41.5263V33.7368V27.8947C29 26.8618 29.3395 25.8711 29.9438 25.1407C30.5481 24.4103 31.3676 24 32.2222 24H54.7778C55.6324 24 56.452 24.4103 57.0562 25.1407C57.6605 25.8711 58 26.8618 58 27.8947V33.7368V41.5263V59.0526C58 59.5691 57.8303 60.0644 57.5281 60.4296C57.226 60.7948 56.8162 61 56.3889 61H53.1667C52.7394 61 52.3296 60.7948 52.0274 60.4296C51.7253 60.0644 51.5556 59.5691 51.5556 59.0526V57.1053ZM32.2222 27.8947V39.5789H54.7778V27.8947H32.2222ZM54.7778 43.4737H32.2222V53.2105H54.7778V43.4737Z" fill="white"/>
</g>
<path d="M66.9257 33.933C68.895 31.9626 70.0013 29.2908 70.0013 26.505C70.0013 23.7192 68.895 21.0474 66.9257 19.077C65.9508 18.1015 64.7933 17.3277 63.5193 16.7997C62.2453 16.2717 60.8797 16 59.5007 16C58.1216 16 56.756 16.2717 55.482 16.7997C54.208 17.3277 53.0505 18.1015 52.0757 19.077C50.1063 21.0474 49 23.7192 49 26.505C49 29.2908 50.1063 31.9626 52.0757 33.933L54.3572 36.1815L57.4217 39.159L57.6212 39.336C58.7837 40.278 60.4862 40.218 61.5812 39.159L65.2337 35.604L66.9257 33.933ZM59.5007 31.0005C58.3072 31.0005 57.1626 30.5264 56.3187 29.6825C55.4748 28.8386 55.0007 27.694 55.0007 26.5005C55.0007 25.307 55.4748 24.1624 56.3187 23.3185C57.1626 22.4746 58.3072 22.0005 59.5007 22.0005C60.6941 22.0005 61.8387 22.4746 62.6826 23.3185C63.5265 24.1624 64.0007 25.307 64.0007 26.5005C64.0007 27.694 63.5265 28.8386 62.6826 29.6825C61.8387 30.5264 60.6941 31.0005 59.5007 31.0005Z" fill="white"/>
<circle cx="37" cy="48" r="3" fill="#78CCDE"/>
<circle cx="50" cy="48" r="3" fill="#FFF0B7"/>
<defs>
<linearGradient id="paint0_linear_752_55562" x1="14.1825" y1="74" x2="80.3881" y2="40.3081" gradientUnits="userSpaceOnUse">
<stop stop-color="#493289"/>
<stop offset="1" stop-color="#6A45C5"/>
</linearGradient>
<linearGradient id="paint1_linear_752_55562" x1="11.9997" y1="43.8997" x2="60.0027" y2="19.902" gradientUnits="userSpaceOnUse">
<stop stop-color="#53389E"/>
<stop offset="1" stop-color="#7F56D9"/>
</linearGradient>
<clipPath id="clip0_752_55562">
<path d="M86 43C86 66.7482 66.7482 86 43 86L43 43L86 43Z" fill="white"/>
</clipPath>
<clipPath id="clip1_752_55562">
<rect width="64" height="60" fill="white" transform="translate(12 14)"/>
</clipPath>
<clipPath id="clip2_752_55562">
<path d="M41 14C41 30.0163 28.0163 43 12 43L12 14L41 14Z" fill="white"/>
</clipPath>
</defs>
</svg>
