<svg width="116" height="80" viewBox="0 0 116 80" fill="none" xmlns="http://www.w3.org/2000/svg">
<g clip-path="url(#clip0_4171_991)">
<path d="M91.2727 50.4489C91.4725 51.2752 91.6959 52.169 91.8769 53.0355C92.0579 53.902 92.2462 54.7935 92.3934 55.6737C92.7103 57.3949 92.9005 59.1374 92.9624 60.8869L92.9646 61.5198L92.9621 61.7566C92.9506 61.8217 92.9357 61.906 92.9451 61.9868C92.8937 62.3625 92.8202 62.7348 92.7248 63.1018C92.5098 63.8975 92.2275 64.7406 91.8958 65.5748C91.2697 67.2538 90.5465 68.9709 89.8205 70.6597L91.6386 71.7751C92.8439 70.267 93.9266 68.6637 94.8763 66.9807C95.3747 66.1055 95.8131 65.1971 96.1886 64.2619C96.3978 63.7447 96.5654 63.2115 96.6899 62.6673C96.7169 62.514 96.7426 62.3684 96.7717 62.2036C96.8007 62.0388 96.8332 61.8548 96.8255 61.7428L96.8845 60.9626C96.9449 59.9551 96.9434 58.9449 96.8801 57.9376C96.8359 56.9413 96.726 55.9611 96.6141 54.9923C96.5022 54.0235 96.3191 53.0578 96.1142 52.1041C96.0136 51.6276 95.8896 51.1508 95.7922 50.6788C95.6948 50.2067 95.5635 49.7484 95.403 49.2335L91.2727 50.4489Z" fill="#FFCCAC"/>
<path d="M90.0135 70.1607L88.2709 71.3557L91.2409 73.4674C91.2409 73.4674 92.2694 72.2239 91.9452 70.8772L90.0135 70.1607Z" fill="#E4897B"/>
<path d="M86.688 73.3144L89.227 74.9301L91.2397 73.4512L88.2708 71.3555L86.688 73.3144Z" fill="#E4897B"/>
<path opacity="0.4" d="M39.7445 55.1878C43.7722 55.4504 47.787 54.5052 51.2813 52.4716C54.7757 50.4381 57.5927 47.4075 59.3762 43.763C61.1598 40.1186 61.8298 36.0238 61.3016 31.9965C60.7734 27.9691 59.0707 24.19 56.4087 21.1368C53.7467 18.0836 50.245 15.8934 46.3462 14.8431C42.4474 13.7929 38.3265 13.9297 34.5047 15.2363C30.6828 16.5429 27.3315 18.9606 24.8743 22.1838C22.4172 25.407 20.9646 29.2909 20.7001 33.3446C20.5244 36.0378 20.8777 38.7395 21.7399 41.2951C22.602 43.8507 23.9561 46.2102 25.7247 48.2387C27.4933 50.2673 29.6418 51.9251 32.0474 53.1175C34.453 54.3098 37.0685 55.0133 39.7445 55.1878Z" fill="#FAFAFA"/>
<path opacity="0.4" d="M31.5164 16.5316L57.7162 46.592C57.8944 46.3342 58.0698 46.0758 58.2368 45.816C59.3282 44.1194 60.162 42.2685 60.7109 40.3244L38.081 14.3596C35.785 14.6981 33.5642 15.4329 31.5164 16.5316Z" fill="#FAFAFA"/>
<path opacity="0.4" d="M22.5549 26.032L47.1879 54.2924C50.1712 53.3503 52.8992 51.7297 55.1604 49.556L28.2646 18.6954C25.8282 20.6685 23.8747 23.1786 22.5549 26.032Z" fill="#FAFAFA"/>
<path d="M22.1277 20.6282C25.6684 15.6978 30.9582 12.3275 36.9005 11.2161C42.8428 10.1047 48.9819 11.3374 54.045 14.6586C59.1081 17.9799 62.7069 23.135 64.0955 29.0552C65.484 34.9755 64.5557 41.2068 61.503 46.4574C63.2506 47.4493 64.9674 48.485 66.6691 49.5411C69.1221 51.0693 71.5426 52.6399 73.9307 54.2531C76.3157 55.8724 78.6856 57.5122 81.0209 59.2009C82.1947 60.0348 83.3458 60.8993 84.5115 61.7462C85.1241 62.1522 85.6516 62.6753 86.0641 63.2857C86.2862 63.6226 86.4704 63.9832 86.6135 64.361C86.7902 64.8092 86.9006 65.2812 86.941 65.7617C87.0044 66.626 86.7584 67.4846 86.2475 68.1823C85.7367 68.88 84.9947 69.3707 84.1557 69.5657C83.6904 69.6707 83.2125 69.7079 82.7367 69.6761C82.3346 69.6503 81.9367 69.5789 81.5506 69.4632C80.85 69.2471 80.1983 68.8948 79.6325 68.4262C78.4824 67.556 77.3199 66.7068 76.1812 65.8213C73.8982 64.0811 71.6252 62.2848 69.3864 60.4743C67.1475 58.6639 64.9174 56.7883 62.7551 54.8872C61.2615 53.567 59.7552 52.2213 58.2908 50.8339C54.2107 55.3203 48.5724 58.0551 42.5441 58.4716C36.5158 58.8881 30.5597 56.9543 25.9099 53.071C21.2602 49.1878 18.2733 43.6526 17.5681 37.6126C16.8629 31.5726 18.4936 25.4907 22.1221 20.6272L22.1277 20.6282ZM30.0555 49.7388C33.0129 51.9322 36.5502 53.1937 40.2202 53.3637C43.8901 53.5337 47.5279 52.6046 50.6736 50.6939C53.8192 48.7832 56.3314 45.9766 57.8926 42.6291C59.4537 39.2816 59.9937 35.5435 59.4442 31.8875C58.8947 28.2314 57.2805 24.8216 54.8055 22.0892C52.3306 19.3567 49.1061 17.4244 45.5399 16.5365C41.9736 15.6486 38.2257 15.845 34.7701 17.1009C31.3144 18.3568 28.3062 20.6157 26.1258 23.5921C24.6778 25.5688 23.6308 27.8131 23.0446 30.197C22.4584 32.5808 22.3445 35.0575 22.7094 37.4855C23.0744 39.9135 23.9109 42.2454 25.1714 44.3478C26.4318 46.4502 28.0915 48.2821 30.0555 49.7388Z" fill="#7550CC"/>
<path opacity="0.3" d="M22.1277 20.6282C25.6684 15.6978 30.9582 12.3275 36.9005 11.2161C42.8428 10.1047 48.9819 11.3374 54.045 14.6586C59.1081 17.9799 62.7069 23.135 64.0955 29.0552C65.484 34.9755 64.5557 41.2068 61.503 46.4574C63.2506 47.4493 64.9674 48.485 66.6691 49.5411C69.1221 51.0693 71.5426 52.6399 73.9307 54.2531C76.3157 55.8724 78.6856 57.5122 81.0209 59.2009C82.1947 60.0348 83.3458 60.8993 84.5115 61.7462C85.1241 62.1522 85.6516 62.6753 86.0641 63.2857C86.2862 63.6226 86.4704 63.9832 86.6135 64.361C86.7902 64.8092 86.9006 65.2812 86.941 65.7617C87.0044 66.626 86.7584 67.4846 86.2475 68.1823C85.7367 68.88 84.9947 69.3707 84.1557 69.5657C83.6904 69.6707 83.2125 69.7079 82.7367 69.6761C82.3346 69.6503 81.9367 69.5789 81.5506 69.4632C80.85 69.2471 80.1983 68.8948 79.6325 68.4262C78.4824 67.556 77.3199 66.7068 76.1812 65.8213C73.8982 64.0811 71.6252 62.2848 69.3864 60.4743C67.1475 58.6639 64.9174 56.7883 62.7551 54.8872C61.2615 53.567 59.7552 52.2213 58.2908 50.8339C54.2107 55.3203 48.5724 58.0551 42.5441 58.4716C36.5158 58.8881 30.5597 56.9543 25.9099 53.071C21.2602 49.1878 18.2733 43.6526 17.5681 37.6126C16.8629 31.5726 18.4936 25.4907 22.1221 20.6272L22.1277 20.6282ZM30.0555 49.7388C33.0129 51.9322 36.5502 53.1937 40.2202 53.3637C43.8901 53.5337 47.5279 52.6046 50.6736 50.6939C53.8192 48.7832 56.3314 45.9766 57.8926 42.6291C59.4537 39.2816 59.9937 35.5435 59.4442 31.8875C58.8947 28.2314 57.2805 24.8216 54.8055 22.0892C52.3306 19.3567 49.1061 17.4244 45.5399 16.5365C41.9736 15.6486 38.2257 15.845 34.7701 17.1009C31.3144 18.3568 28.3062 20.6157 26.1258 23.5921C24.6778 25.5688 23.6308 27.8131 23.0446 30.197C22.4584 32.5808 22.3445 35.0575 22.7094 37.4855C23.0744 39.9135 23.9109 42.2454 25.1714 44.3478C26.4318 46.4502 28.0915 48.2821 30.0555 49.7388Z" fill="black"/>
<path d="M79.8822 36.0415C79.8822 36.2712 79.7623 36.458 79.6115 36.458C79.4607 36.458 79.3408 36.2712 79.3408 36.0415C79.3408 35.8118 79.4607 35.625 79.6115 35.625C79.7623 35.625 79.8822 35.8274 79.8822 36.0415Z" fill="#37206D"/>
<path d="M79.7735 36.4579C79.4998 37.1628 79.1315 37.8268 78.6791 38.4313C78.8355 38.544 79.0145 38.6208 79.2036 38.6565C79.3926 38.6921 79.5872 38.6857 79.7735 38.6376V36.4579Z" fill="#FFCCAC"/>
<path d="M79.7735 36.4579C79.4998 37.1628 79.1315 37.8268 78.6791 38.4313C78.8355 38.544 79.0145 38.6208 79.2036 38.6565C79.3926 38.6921 79.5872 38.6857 79.7735 38.6376V36.4579Z" fill="#DE5753" fill-opacity="0.5"/>
<path d="M80.6827 34.7609C80.7042 34.7609 80.7255 34.756 80.7449 34.7465C80.7644 34.7371 80.7814 34.7234 80.7948 34.7064C80.815 34.6767 80.823 34.6403 80.8172 34.6048C80.8115 34.5693 80.7924 34.5374 80.7639 34.5156C80.5936 34.3856 80.3945 34.299 80.1838 34.2631C79.973 34.2271 79.7568 34.243 79.5534 34.3093C79.5352 34.3144 79.5181 34.3232 79.5035 34.3352C79.4888 34.3472 79.4768 34.3622 79.4683 34.3792C79.4597 34.3962 79.4548 34.4148 79.4538 34.4339C79.4529 34.4529 79.4559 34.4719 79.4627 34.4897C79.4695 34.5075 79.4799 34.5236 79.4933 34.5371C79.5067 34.5506 79.5227 34.5611 79.5404 34.5679C79.558 34.5748 79.5769 34.5778 79.5958 34.5769C79.6147 34.5759 79.6332 34.571 79.6501 34.5624C79.8116 34.5125 79.9827 34.5024 80.1489 34.5329C80.3151 34.5633 80.4716 34.6335 80.6053 34.7375C80.6282 34.7528 80.6552 34.7609 80.6827 34.7609Z" fill="#37206D"/>
<path d="M87.6939 37.7736C87.3072 39.8638 86.8818 43.6979 88.3359 45.0953C88.3359 45.0953 87.7674 47.2167 83.904 47.2167C79.6501 47.2167 81.8776 45.0953 81.8776 45.0953C84.1979 44.5348 84.1322 42.8065 83.73 41.1795L87.6939 37.7736Z" fill="#FFCCAC"/>
<path d="M87.6939 37.7736C87.3072 39.8638 86.8818 43.6979 88.3359 45.0953C88.3359 45.0953 87.7674 47.2167 83.904 47.2167C79.6501 47.2167 81.8776 45.0953 81.8776 45.0953C84.1979 44.5348 84.1322 42.8065 83.73 41.1795L87.6939 37.7736Z" fill="#E4897B" fill-opacity="0.3"/>
<path d="M90.0723 46.1969C89.6121 45.4768 90.3856 43.729 90.3856 43.729C90.3856 43.729 83.5483 41.9969 80.7522 44.6554C80.1721 45.2043 80.8141 46.0139 80.8141 46.0139L90.0723 46.1969Z" fill="#7550CC"/>
<path opacity="0.1" d="M90.0723 46.1969C89.6121 45.4768 90.3856 43.729 90.3856 43.729C90.3856 43.729 83.5483 41.9969 80.7522 44.6554C80.1721 45.2043 80.8141 46.0139 80.8141 46.0139L90.0723 46.1969Z" fill="black"/>
<path d="M93.9355 45.9477C96.399 47.1154 97.8028 54.9393 97.8028 54.9393L91.7815 57.3565C90.9001 55.1904 90.1876 52.9584 89.6506 50.6809C88.823 47.0765 91.4141 44.741 93.9355 45.9477Z" fill="#37206D"/>
<path d="M90.7417 50.3579C92.2306 51.876 92.9112 54.8498 93.209 56.7844L91.7665 57.3643C90.9102 55.2597 90.2121 53.0933 89.6782 50.8834C89.8058 50.0582 90.1229 49.7273 90.7417 50.3579Z" fill="#203048"/>
<path d="M77.5074 45.8934C77.5074 45.8934 74.4832 49.3343 77.3372 70.6105H92.5317C92.6361 68.275 91.1704 56.8117 93.4211 45.7493C91.742 45.4216 90.0431 45.2058 88.3357 45.1032C86.1848 44.9746 84.0283 44.9746 81.8774 45.1032C80.4026 45.2526 78.9416 45.5167 77.5074 45.8934Z" fill="#37206D"/>
<path d="M76.1194 54.1531L78.6795 49.7118C79.1737 51.784 79.3755 53.916 79.2789 56.0448C79.2093 57.5707 77.821 63.2225 76.5719 64.0477C76.2404 60.7604 76.0893 57.4572 76.1194 54.1531Z" fill="#203048"/>
<path d="M68.3227 64.1113L67.9362 59.5222L70.6418 61.7L72.961 56.7222L77.2128 57.8889C74.4298 63.8 72.4456 65.7963 71.8014 66.0555C68.7092 66.6778 68.1938 65.0186 68.3227 64.1113Z" fill="#FFCCAC"/>
<path d="M74.5074 56.7222L71.4998 59.8333L72.9611 56.3334L74.5074 56.7222Z" fill="#FFCCAC"/>
<path d="M74.5074 56.7222L71.4998 59.8333L72.9611 56.3334L74.5074 56.7222Z" fill="#E4897B" fill-opacity="0.5"/>
<path d="M81.3012 47.9797C82.1018 50.5915 78.8571 58.3803 78.8571 58.3803L72.395 56.7455C72.395 56.7455 72.6425 52.6973 74.1159 49.4861C76.3357 44.6438 80.3422 44.8462 81.3012 47.9797Z" fill="#37206D"/>
<path d="M87.5162 35.547C87.3461 38.3769 87.3886 40.0467 85.9693 41.4986C83.8346 43.6901 80.358 42.3939 79.6851 39.5524C79.0779 37.0067 79.4569 32.8028 82.2104 31.674C82.8179 31.4272 83.4778 31.3398 84.1281 31.42C84.7785 31.5002 85.3979 31.7453 85.9283 32.1325C86.4586 32.5196 86.8826 33.0361 87.1604 33.6333C87.4381 34.2306 87.5606 34.8891 87.5162 35.547Z" fill="#FFCCAC"/>
<path d="M90.8261 35.0488C90.1261 37.6295 88.4787 40.6033 86.3478 40.7941C83.7026 41.0276 82.5076 38.2756 82.1596 35.4341C80.574 34.3404 81.4055 33.1376 79.816 32.9858C77.7741 32.7912 78.4277 29.031 81.1154 28.4277C81.1154 28.4277 80.2144 30.1209 82.1054 29.2646C83.9039 28.4043 85.9019 28.0557 87.8831 28.2564C87.8831 28.2564 85.47 29.4709 87.829 30.0119C90.188 30.553 90.8918 32.0165 89.8051 32.9001C89.8051 32.904 91.2863 33.3517 90.8261 35.0488Z" fill="#37206D"/>
<path d="M83.7725 36.0181C83.7205 36.7215 83.4391 37.3879 82.9719 37.9137C82.3532 38.6027 81.7073 38.1745 81.5991 37.3376C81.4985 36.5864 81.7035 35.3213 82.4615 34.9399C83.2194 34.5584 83.8227 35.1695 83.7725 36.0181Z" fill="#FFCCAC"/>
<path d="M82.7287 70.6105C82.7287 70.6105 79.9598 90.7929 82.1409 98.8814C85.5982 111.688 98.8165 122.497 98.8165 122.497L103.299 119.539C103.299 119.539 92.0411 110.411 90.6643 99.6872C89.4268 90.0611 92.5322 78.4187 92.5322 70.6066L82.7287 70.6105Z" fill="#7550CC"/>
<path opacity="0.1" d="M82.7287 70.6105C82.7287 70.6105 79.9598 90.7929 82.1409 98.8814C85.5982 111.688 98.8165 122.497 98.8165 122.497L103.299 119.539C103.299 119.539 92.0411 110.411 90.6643 99.6872C89.4268 90.0611 92.5322 78.4187 92.5322 70.6066L82.7287 70.6105Z" fill="black"/>
<path d="M81.5831 82.1478C82.3203 81.2978 83.1318 80.5161 84.0079 79.8123C83.5361 86.3633 83.1494 96.0672 83.5786 102.961C83.0015 101.639 82.5207 100.277 82.14 98.8854C81.0765 94.9345 81.1887 88.111 81.5831 82.1478Z" fill="#7550CC"/>
<path opacity="0.3" d="M81.5831 82.1478C82.3203 81.2978 83.1318 80.5161 84.0079 79.8123C83.5361 86.3633 83.1494 96.0672 83.5786 102.961C83.0015 101.639 82.5207 100.277 82.14 98.8854C81.0765 94.9345 81.1887 88.111 81.5831 82.1478Z" fill="black"/>
<path d="M77.3375 70.6104C77.3375 70.6104 73.0603 88.866 72.7586 97.5891C72.4183 107.367 75.8099 130.434 75.8099 130.434H80.6246C80.6246 130.434 81.2163 107.188 81.429 98.2819C81.6649 88.5702 87.3266 70.6104 87.3266 70.6104H77.3375Z" fill="#7550CC"/>
<path opacity="0.1" d="M77.3375 70.6104C77.3375 70.6104 73.0603 88.866 72.7586 97.5891C72.4183 107.367 75.8099 130.434 75.8099 130.434H80.6246C80.6246 130.434 81.2163 107.188 81.429 98.2819C81.6649 88.5702 87.3266 70.6104 87.3266 70.6104H77.3375Z" fill="black"/>
</g>
<defs>
<clipPath id="clip0_4171_991">
<rect width="116" height="80" fill="white"/>
</clipPath>
</defs>
</svg>
