<svg width="116" height="80" viewBox="0 0 116 80" fill="none" xmlns="http://www.w3.org/2000/svg">
<g clip-path="url(#clip0_4171_3692)">
<path d="M42.3738 31.8739L58.3456 27.2591L74.8739 13.3164C75.2994 12.9564 76.0194 12.8909 76.4776 13.1855L115.982 35.9978C116.44 36.2596 116.506 36.7833 116.08 37.1106L99.5518 51.0532L83.5799 55.6681L66.2988 70.2653L48.6251 76.0911C48.1014 76.2548 47.3159 76.1893 46.8577 75.8947L45.0576 74.8474L7.32075 53.0825C6.86254 52.8206 6.89527 52.4606 7.41893 52.297L25.0927 46.4711L42.3738 31.8739Z" fill="#9D83DB"/>
<path d="M58.3132 27.292L99.552 51.0862L83.5801 55.6683L42.374 31.8741L58.3132 27.292Z" fill="#5330A5"/>
<path d="M66.2989 70.2654L48.6251 76.0912C48.1014 76.2548 47.3159 76.1893 46.8577 75.8948L7.32075 53.0825C6.86254 52.8207 6.89527 52.4606 7.41893 52.297L25.0927 46.4712L66.2989 70.2654Z" fill="#5330A5"/>
<path d="M60.9962 28.7971L76.1171 16.0654L111.988 36.783L96.8674 49.5474L60.9962 28.7971Z" fill="#E0E0E0"/>
<path d="M45.0245 33.4117L80.9285 54.1293L96.8676 49.5472L60.9963 28.7969L45.0245 33.4117Z" fill="#E0E0E0"/>
<g opacity="0.5">
<path opacity="0.5" d="M45.0245 33.4117L80.9285 54.1293L96.8676 49.5472L60.9963 28.7969L45.0245 33.4117Z" fill="#E0E0E0"/>
</g>
<path d="M27.743 48.0091L63.647 68.7267L80.928 54.1294L45.0241 33.4118L27.743 48.0091Z" fill="#E0E0E0"/>
<path d="M12.5241 53.0168L48.4281 73.7344L63.6472 68.7268L27.7432 48.0092L12.5241 53.0168Z" fill="#E0E0E0"/>
<g opacity="0.5">
<path opacity="0.5" d="M12.5241 53.0168L48.4281 73.7344L63.6472 68.7268L27.7432 48.0092L12.5241 53.0168Z" fill="#E0E0E0"/>
</g>
<path d="M103.25 44.147L98.2096 41.1032L106.196 33.4118L111.989 36.7829L103.25 44.147Z" fill="#F0F0F0"/>
<path d="M96.8684 40.3178L104.854 32.6592L92.9081 25.7206L84.9222 33.4119L96.8684 40.3178Z" fill="#F0F0F0"/>
<path d="M91.5659 24.9678L83.58 32.6592L79.587 30.3354L80.9289 18.8474L91.5659 24.9678Z" fill="#F0F0F0"/>
<path d="M78.2782 29.5826L79.5874 18.0619L76.1181 16.0654L63.1573 26.997L78.2782 29.5826Z" fill="#F0F0F0"/>
<path d="M92.2206 46.8634L96.2135 43.0014L101.188 45.8816L96.8681 49.5472L92.2206 46.8634Z" fill="#F0F0F0"/>
<path d="M94.8719 42.2488L90.9116 46.0781L78.9327 39.1722L82.9257 35.3429L94.8719 42.2488Z" fill="#F0F0F0"/>
<path d="M77.5906 38.4195L81.5836 34.5574L77.9507 32.4628L70.292 31.1208V34.1974L77.5906 38.4195Z" fill="#F0F0F0"/>
<path d="M68.95 33.4121V30.8919L62.6333 29.7791L68.95 33.4121Z" fill="#F0F0F0"/>
<path d="M62.3055 35.7032C63.7783 35.2777 65.873 35.4413 66.953 36.0959C68.0331 36.7505 67.7713 37.6015 66.2985 38.027C64.8256 38.4524 62.731 38.2888 61.6509 37.6342C60.5381 37.0123 60.8327 36.1287 62.3055 35.7032Z" fill="#E6E6E6"/>
<path d="M66.6266 34.885C66.9212 34.9832 67.2157 35.1141 67.4448 35.245C68.5904 35.8996 68.6231 36.7833 68.5904 37.1433C68.5576 37.307 68.5249 37.5033 68.394 37.7325L71.6015 39.5653L77.5909 38.4198L70.2923 34.1977L66.6266 34.885Z" fill="#E6E6E6"/>
<path d="M68.95 33.4124L64.8588 34.1325L62.7642 34.427L55.6619 30.3359L60.9968 28.7976L68.95 33.4124Z" fill="#E6E6E6"/>
<path d="M45.025 33.4121L55.0074 39.1725L60.9641 38.3543C60.015 37.6997 59.9823 36.9142 60.015 36.5869C60.0477 36.4232 60.0805 36.2269 60.2114 35.9978L52.1272 31.3829L45.025 33.4121Z" fill="#E6E6E6"/>
<path d="M56.2185 39.8601L60.997 42.6094L68.9829 41.0711L65.6445 39.1728H65.6118C65.2518 39.2055 64.859 39.2382 64.499 39.2382C63.6808 39.2382 62.8953 39.1401 62.208 38.911L56.2185 39.8601Z" fill="#E6E6E6"/>
<path d="M78.9324 39.1725L90.9113 46.0784L84.9219 47.2239L72.943 40.318L78.9324 39.1725Z" fill="#E6E6E6"/>
<path d="M60.9971 42.6414L68.9831 41.1031L80.9292 48.009L72.9433 49.5473L60.9971 42.6414Z" fill="#E6E6E6"/>
<path d="M92.2216 46.8639L96.8692 49.5477L91.567 51.0859L86.2322 48.0094L92.2216 46.8639Z" fill="#E6E6E6"/>
<path d="M74.2859 50.3009L82.2718 48.7626L88.0322 52.101L80.9299 54.1302L74.2859 50.3009Z" fill="#E6E6E6"/>
<path d="M53.0103 42.6416L48.5591 50.8239L37.0384 44.1471L47.6754 39.565L53.0103 42.6416Z" fill="#F0F0F0"/>
<path d="M74.2848 50.3005L72.9429 52.5915L73.3684 60.512L80.9288 54.1298L74.2848 50.3005Z" fill="#F0F0F0"/>
<path d="M72.9423 49.5476L71.6331 51.8387L54.9412 42.2163L56.2176 39.8598L72.9423 49.5476Z" fill="#F0F0F0"/>
<path d="M55.0072 39.1725L53.6653 41.4635L42.8646 35.2449L45.0248 33.4121L55.0072 39.1725Z" fill="#F0F0F0"/>
<path d="M54.3521 43.3943L70.9459 52.984L71.3713 62.1809L70.1276 63.261L49.8682 51.5767L54.3521 43.3943Z" fill="#F0F0F0"/>
<path d="M46.3664 38.7797L41.7843 36.1613L34.2239 42.5435L35.7294 43.3945L46.3664 38.7797Z" fill="#F0F0F0"/>
<path d="M67.967 65.094L62.3049 61.8211L59.6538 66.4359L63.6468 68.727L67.967 65.094Z" fill="#F0F0F0"/>
<path d="M55.6627 57.9799L53.0116 62.5716L58.3402 65.6481L60.9913 61.0565L55.6627 57.9799Z" fill="#F0F0F0"/>
<path d="M54.3522 57.2063L48.6245 53.9006L46.0717 58.5809L51.6684 61.8211L54.3522 57.2063Z" fill="#F0F0F0"/>
<path d="M44.7626 57.8284L47.2828 53.1481L35.7294 46.4713L29.9036 46.1768L27.7434 48.0096L44.7626 57.8284Z" fill="#F0F0F0"/>
<path d="M33.1436 43.4271L35.7292 44.9327L31.5726 44.769L33.1436 43.4271Z" fill="#F0F0F0"/>
<path d="M38.3147 60.3156C39.7875 59.8902 41.8822 60.0538 42.9623 60.7084C44.0751 61.3302 43.7805 62.2139 42.3077 62.6394C40.8349 63.0649 38.7402 62.9012 37.6601 62.2467C36.5473 61.6248 36.8419 60.7411 38.3147 60.3156Z" fill="#E6E6E6"/>
<path d="M59.6546 66.4363L54.3525 67.9418L58.5745 70.3965L63.6476 68.7273L59.6546 66.4363Z" fill="#E6E6E6"/>
<path d="M58.3124 65.6505L53.0102 67.1888L47.6754 64.1122L53.0102 62.574L58.3124 65.6505Z" fill="#E6E6E6"/>
<path d="M51.6683 61.8212L46.3662 63.3595L44.5988 62.3449C44.5988 62.3449 45.4497 60.4793 42.9623 59.6938L46.0716 58.6138L51.6683 61.8212Z" fill="#E6E6E6"/>
<path d="M44.7623 57.8281L41.4893 59.0063C41.4893 59.0063 40.442 58.8427 38.8383 59.0063L29.085 53.3769L34.3871 51.8386L44.7623 57.8281Z" fill="#E6E6E6"/>
<path d="M33.0784 51.0861L27.7435 52.5916L22.6705 49.6787L27.7435 48.0095L33.0784 51.0861Z" fill="#E6E6E6"/>
<path d="M19.2991 50.7915L27.7432 55.6682L21.0992 57.9919L12.5241 53.0171L19.2991 50.7915Z" fill="#E6E6E6"/>
<path d="M29.0849 56.4536L36.0889 60.4793C36.0889 60.4793 35.238 61.8212 36.318 62.8685L31.7359 64.1123L22.4408 58.7447L28.9212 56.5191" fill="#E6E6E6"/>
<path d="M33.0782 64.898L37.7912 63.7197C37.7912 63.7197 40.0822 64.6034 41.9805 63.9161L49.0173 67.9745L50.3592 73.113L48.4282 73.7349L33.0782 64.898Z" fill="#E6E6E6"/>
<path d="M50.3593 68.7275L51.472 72.7532L55.1705 71.5095L50.3593 68.7275Z" fill="#E6E6E6"/>
<path fill-rule="evenodd" clip-rule="evenodd" d="M53.4824 41.2083L71.448 51.6882L72.6913 49.2018L90.9058 45.6601L95.2011 41.842L96.5298 43.3368L91.8252 47.5188L74.0397 50.977L72.2829 54.4906L54.2486 43.9706L46.0453 58.9295L40.6528 60.5472L40.0781 58.6316L44.6857 57.2493L53.4824 41.2083Z" fill="#FFCCAC"/>
<path d="M38.2662 48.3635L38.4333 48.28C38.3498 48.656 38.2662 49.0737 38.2662 49.5333V50.1181C38.2662 52.2069 40.7728 57.5543 41.6919 59.4342C41.7754 59.6431 40.9399 60.6039 40.9399 60.6039L42.3603 59.8102C42.3603 59.8102 45.7859 57.0112 45.7859 54.4629V53.878C45.7859 51.3296 44.1149 48.28 42.0261 47.0685C40.9817 46.4836 40.0208 46.4418 39.3524 46.9014L37.932 47.7369L38.2662 48.3635ZM40.1462 50.327C40.1462 49.1155 40.9817 48.656 42.0261 49.2408C41.9425 49.9928 43.3629 52.4158 43.906 52.4994C43.906 53.7109 43.0705 54.1704 42.0261 53.5856C40.9817 53.0007 40.1462 51.5385 40.1462 50.327Z" fill="#37206D"/>
<path d="M38.2662 48.3635L38.4333 48.28C38.3498 48.656 38.2662 49.0737 38.2662 49.5333V50.1181C38.2662 52.2069 40.7728 57.5543 41.6919 59.4342C41.7754 59.6431 40.9399 60.6039 40.9399 60.6039L42.3603 59.8102C42.3603 59.8102 45.7859 57.0112 45.7859 54.4629V53.878C45.7859 51.3296 44.1149 48.28 42.0261 47.0685C40.9817 46.4836 40.0208 46.4418 39.3524 46.9014L37.932 47.7369L38.2662 48.3635ZM40.1462 50.327C40.1462 49.1155 40.9817 48.656 42.0261 49.2408C41.9425 49.9928 43.3629 52.4158 43.906 52.4994C43.906 53.7109 43.0705 54.1704 42.0261 53.5856C40.9817 53.0007 40.1462 51.5385 40.1462 50.327Z" fill="#37206D"/>
<g opacity="0.2">
<path opacity="0.2" d="M38.2662 48.3635L38.4333 48.28C38.3498 48.656 38.2662 49.0737 38.2662 49.5333V50.1181C38.2662 52.2069 40.7728 57.5543 41.6919 59.4342C41.7754 59.6431 40.9399 60.6039 40.9399 60.6039L42.3603 59.8102C42.3603 59.8102 45.7859 57.0112 45.7859 54.4629V53.878C45.7859 51.3296 44.1149 48.28 42.0261 47.0685C40.9817 46.4836 40.0208 46.4418 39.3524 46.9014L37.932 47.7369L38.2662 48.3635ZM40.1462 50.327C40.1462 49.1155 40.9817 48.656 42.0261 49.2408C41.9425 49.9928 43.3629 52.4158 43.906 52.4994C43.906 53.7109 43.0705 54.1704 42.0261 53.5856C40.9817 53.0007 40.1462 51.5385 40.1462 50.327Z" fill="#37206D"/>
</g>
<path d="M36.7622 50.9539C36.7622 53.0845 39.3523 58.5572 40.2296 60.3535C40.3967 60.646 40.7727 60.7295 41.0234 60.5206C42.0678 59.5598 44.2819 57.3039 44.2819 55.2986V54.7138C44.2819 52.1654 42.6109 49.1158 40.5221 47.9043C38.4333 46.6928 36.7622 47.8207 36.7622 50.3691V50.9539ZM38.6421 51.2046C38.6421 49.9931 39.4777 49.5335 40.5221 50.1184C41.5665 50.7033 42.402 52.1654 42.402 53.3769C42.402 54.5884 41.5665 55.048 40.5221 54.4631C39.4777 53.8365 38.6421 52.3743 38.6421 51.2046Z" fill="#7550CC"/>
<path d="M93.8693 31.3635L94.0364 31.28C93.9528 31.656 93.8693 32.0737 93.8693 32.5333V33.1181C93.8693 35.2069 96.3758 40.5543 97.2949 42.4342C97.3785 42.6431 96.5429 43.6039 96.5429 43.6039L97.9633 42.8102C97.9633 42.8102 101.389 40.0112 101.389 37.4629V36.878C101.389 34.3296 99.7179 31.28 97.6291 30.0685C96.5847 29.4836 95.6239 29.4418 94.9555 29.9014L93.5351 30.7369L93.8693 31.3635ZM95.7492 33.327C95.7492 32.1155 96.5847 31.656 97.6291 32.2408C97.5456 32.9928 98.966 35.4158 99.509 35.4994C99.509 36.7109 98.6735 37.1704 97.6291 36.5856C96.5847 36.0007 95.7492 34.5385 95.7492 33.327Z" fill="#37206D"/>
<path d="M93.8693 31.3635L94.0364 31.28C93.9528 31.656 93.8693 32.0737 93.8693 32.5333V33.1181C93.8693 35.2069 96.3758 40.5543 97.2949 42.4342C97.3785 42.6431 96.5429 43.6039 96.5429 43.6039L97.9633 42.8102C97.9633 42.8102 101.389 40.0112 101.389 37.4629V36.878C101.389 34.3296 99.7179 31.28 97.6291 30.0685C96.5847 29.4836 95.6239 29.4418 94.9555 29.9014L93.5351 30.7369L93.8693 31.3635ZM95.7492 33.327C95.7492 32.1155 96.5847 31.656 97.6291 32.2408C97.5456 32.9928 98.966 35.4158 99.509 35.4994C99.509 36.7109 98.6735 37.1704 97.6291 36.5856C96.5847 36.0007 95.7492 34.5385 95.7492 33.327Z" fill="#37206D"/>
<g opacity="0.2">
<path opacity="0.2" d="M93.8693 31.3635L94.0364 31.28C93.9528 31.656 93.8693 32.0737 93.8693 32.5333V33.1181C93.8693 35.2069 96.3758 40.5543 97.2949 42.4342C97.3785 42.6431 96.5429 43.6039 96.5429 43.6039L97.9633 42.8102C97.9633 42.8102 101.389 40.0112 101.389 37.4629V36.878C101.389 34.3296 99.7179 31.28 97.6291 30.0685C96.5847 29.4836 95.6239 29.4418 94.9555 29.9014L93.5351 30.7369L93.8693 31.3635ZM95.7492 33.327C95.7492 32.1155 96.5847 31.656 97.6291 32.2408C97.5456 32.9928 98.966 35.4158 99.509 35.4994C99.509 36.7109 98.6735 37.1704 97.6291 36.5856C96.5847 36.0007 95.7492 34.5385 95.7492 33.327Z" fill="#37206D"/>
</g>
<path d="M92.3652 33.9539C92.3652 36.0845 94.9554 41.5572 95.8327 43.3535C95.9998 43.646 96.3757 43.7295 96.6264 43.5206C97.6708 42.5598 99.8849 40.3039 99.8849 38.2986V37.7138C99.8849 35.1654 98.2139 32.1158 96.1251 30.9043C94.0363 29.6928 92.3652 30.8207 92.3652 33.3691V33.9539ZM94.2452 34.2046C94.2452 32.9931 95.0807 32.5335 96.1251 33.1184C97.1695 33.7033 98.005 35.1654 98.005 36.3769C98.005 37.5884 97.1695 38.048 96.1251 37.4631C95.0807 36.8365 94.2452 35.3743 94.2452 34.2046Z" fill="#7550CC"/>
</g>
<defs>
<clipPath id="clip0_4171_3692">
<rect width="116" height="80" fill="white"/>
</clipPath>
</defs>
</svg>
