<svg width="21" height="21" viewBox="0 0 21 21" fill="none" xmlns="http://www.w3.org/2000/svg">
<path d="M6 12C6.39782 12 6.77936 11.842 7.06066 11.5607C7.34196 11.2794 7.5 10.8978 7.5 10.5C7.5 10.1022 7.34196 9.72064 7.06066 9.43934C6.77936 9.15804 6.39782 9 6 9C5.60218 9 5.22064 9.15804 4.93934 9.43934C4.65804 9.72064 4.5 10.1022 4.5 10.5C4.5 10.8978 4.65804 11.2794 4.93934 11.5607C5.22064 11.842 5.60218 12 6 12ZM10.5 12C10.8978 12 11.2794 11.842 11.5607 11.5607C11.842 11.2794 12 10.8978 12 10.5C12 10.1022 11.842 9.72064 11.5607 9.43934C11.2794 9.15804 10.8978 9 10.5 9C10.1022 9 9.72064 9.15804 9.43934 9.43934C9.15804 9.72064 9 10.1022 9 10.5C9 10.8978 9.15804 11.2794 9.43934 11.5607C9.72064 11.842 10.1022 12 10.5 12ZM16.5 10.5C16.5 10.8978 16.342 11.2794 16.0607 11.5607C15.7794 11.842 15.3978 12 15 12C14.6022 12 14.2206 11.842 13.9393 11.5607C13.658 11.2794 13.5 10.8978 13.5 10.5C13.5 10.1022 13.658 9.72064 13.9393 9.43934C14.2206 9.15804 14.6022 9 15 9C15.3978 9 15.7794 9.15804 16.0607 9.43934C16.342 9.72064 16.5 10.1022 16.5 10.5ZM21 10.5C21 16.299 16.299 21 10.5 21C4.701 21 0 16.299 0 10.5C0 4.701 4.701 0 10.5 0C16.299 0 21 4.701 21 10.5ZM19.5 10.5C19.5 5.52975 15.4703 1.5 10.5 1.5C5.52975 1.5 1.5 5.52975 1.5 10.5C1.5 15.4703 5.52975 19.5 10.5 19.5C15.4703 19.5 19.5 15.4703 19.5 10.5Z" fill="#7550CC"/>
</svg>
