<svg width="25" height="25" viewBox="0 0 25 25" fill="none" xmlns="http://www.w3.org/2000/svg">
<g id="soldout">
<path id="Union" fill-rule="evenodd" clip-rule="evenodd" d="M13.9094 2.83091C13.9094 2.3681 13.5342 1.99292 13.0714 1.99292C12.6086 1.99292 12.2334 2.3681 12.2334 2.83091L12.2334 5.28901C12.2334 5.75182 12.6086 6.127 13.0714 6.127C13.5342 6.127 13.9094 5.75182 13.9094 5.28901L13.9094 2.83091ZM6.66957 11.1549L5.60506 9.59068L9.3171 9.59068L10.5459 11.1549L6.66957 11.1549ZM5.41779 12.2905C5.40515 12.2745 5.39299 12.258 5.38136 12.2409L3.80363 9.92253C3.22313 9.0695 3.83409 7.91471 4.86591 7.91471L9.50719 7.91471C9.90153 7.91471 10.274 8.09578 10.5176 8.40587L12.1254 10.4526L13.9367 8.35896C14.1808 8.07683 14.5354 7.91471 14.9084 7.91471L21.3501 7.91471C22.4033 7.91471 23.0092 9.1122 22.3854 9.96074L21.172 11.6112L21.172 20.0376C21.172 21.1175 20.2966 21.9929 19.2167 21.9929L7.3731 21.9929C6.29321 21.9929 5.41779 21.1175 5.41779 20.0376L5.41779 12.2905ZM19.4272 11.1549L20.5773 9.59068L15.0872 9.59068L13.734 11.1549L19.4272 11.1549ZM7.09377 20.0376L7.09377 12.8309L11.1161 12.8309L11.1161 20.3169L7.3731 20.3169C7.21883 20.3169 7.09377 20.1919 7.09377 20.0376ZM12.7921 20.3169L12.7921 12.8309L19.496 12.8309L19.496 20.0376C19.496 20.1919 19.3709 20.3169 19.2167 20.3169L12.7921 20.3169ZM17.9597 2.44028C18.3605 2.67169 18.4978 3.18419 18.2664 3.585L17.0374 5.71377C16.806 6.11458 16.2935 6.2519 15.8927 6.0205C15.4919 5.7891 15.3545 5.27659 15.5859 4.87579L16.815 2.74701C17.0464 2.3462 17.5589 2.20888 17.9597 2.44028ZM9.32787 2.74701C9.09647 2.3462 8.58396 2.20888 8.18316 2.44028C7.78236 2.67169 7.64503 3.18419 7.87643 3.585L9.10548 5.71377C9.33689 6.11458 9.8494 6.2519 10.2502 6.0205C10.651 5.78909 10.7883 5.27659 10.5569 4.87578L9.32787 2.74701Z" fill="white"/>
</g>
</svg>
