<svg width="24" height="24" viewBox="0 0 24 24" fill="none" xmlns="http://www.w3.org/2000/svg">
<rect x="4" y="4" width="16" height="16" rx="2" fill="#9D83DB"/>
<path d="M11.0938 11.1915H13.7214C13.8444 11.1915 13.9625 11.1426 14.0495 11.0556C14.1365 10.9686 14.1854 10.8506 14.1854 10.7275C14.1854 10.6044 14.1365 10.4864 14.0495 10.3993C13.9625 10.3123 13.8444 10.2634 13.7214 10.2634H11.0938V11.1915Z" fill="white"/>
<path d="M14.0664 12.979L15.22 16.1475C15.3211 16.4245 15.6274 16.5681 15.9044 16.467C16.1814 16.3659 16.325 16.0595 16.2239 15.7825L15.0703 12.614L14.0664 12.979Z" fill="white"/>
<path d="M11.0932 8.54572C11.7962 8.54572 12.366 7.97584 12.366 7.27286C12.366 6.56988 11.7962 6 11.0932 6C10.3902 6 9.82031 6.56988 9.82031 7.27286C9.82031 7.97584 10.3902 8.54572 11.0932 8.54572Z" fill="white"/>
<path d="M11.6777 13.5726C11.1479 13.6656 10.6384 13.3087 10.5453 12.7799L10.0772 10.1271C9.98423 9.59729 10.3411 9.08774 10.8699 8.99473C11.3996 8.90171 11.9092 9.2586 12.0022 9.78736L12.4703 12.4402C12.5643 12.97 12.2074 13.4796 11.6777 13.5726Z" fill="white"/>
<path d="M14.3811 13.5877H11.523C11.1206 13.5877 10.792 13.2591 10.792 12.8567C10.792 12.4543 11.1206 12.1257 11.523 12.1257H14.3801C14.7824 12.1257 15.111 12.4543 15.111 12.8567C15.112 13.2581 14.7824 13.5877 14.3811 13.5877Z" fill="white"/>
<path d="M11.1326 17.1676C9.46043 17.1676 8.09961 15.8068 8.09961 14.1346C8.09961 13.1266 8.57681 12.1934 9.37753 11.6394C9.44364 11.5937 9.52517 11.5762 9.60421 11.5906C9.68325 11.605 9.75335 11.6502 9.79912 11.7162C9.84476 11.7823 9.8623 11.8639 9.8479 11.9429C9.83349 12.022 9.78831 12.0921 9.72228 12.1378C9.07624 12.5857 8.70621 13.3126 8.70621 14.1346C8.70621 15.4721 9.79507 16.561 11.1326 16.561C12.356 16.561 13.3912 15.647 13.5409 14.4338C13.5611 14.267 13.7127 14.1487 13.8785 14.1699C14.0443 14.1902 14.1626 14.3418 14.1424 14.5076C13.9564 16.0241 12.6623 17.1676 11.1326 17.1676Z" fill="white" stroke="white" stroke-width="0.5"/>
</svg>
